<mxfile host="app.diagrams.net" agent="Mozilla/5.0 (X11; Linux x86_64) AppleWebKit/537.36 (KHTML, like Gecko) Chrome/131.0.0.0 Safari/537.36" version="26.0.2">
  <diagram name="Page-1" id="nFEdDV40q59QD4kjeuWE">
    <mxGraphModel dx="1380" dy="717" grid="1" gridSize="10" guides="1" tooltips="1" connect="1" arrows="1" fold="1" page="1" pageScale="1" pageWidth="827" pageHeight="1169" math="0" shadow="0">
      <root>
        <mxCell id="0" />
        <mxCell id="1" parent="0" />
        <mxCell id="rjX3UwFx4na6aEU0xc1k-46" value="" style="whiteSpace=wrap;html=1;" vertex="1" parent="1">
          <mxGeometry x="60" y="170" width="760" height="580" as="geometry" />
        </mxCell>
        <mxCell id="rjX3UwFx4na6aEU0xc1k-10" value="" style="rounded=1;whiteSpace=wrap;html=1;" vertex="1" parent="1">
          <mxGeometry x="90" y="275" width="160" height="400" as="geometry" />
        </mxCell>
        <mxCell id="rjX3UwFx4na6aEU0xc1k-7" value="" style="rounded=1;whiteSpace=wrap;html=1;" vertex="1" parent="1">
          <mxGeometry x="105" y="320" width="130" height="310" as="geometry" />
        </mxCell>
        <mxCell id="rjX3UwFx4na6aEU0xc1k-4" value="" style="aspect=fixed;sketch=0;html=1;dashed=0;whitespace=wrap;verticalLabelPosition=bottom;verticalAlign=top;fillColor=#2875E2;strokeColor=#ffffff;points=[[0.005,0.63,0],[0.1,0.2,0],[0.9,0.2,0],[0.5,0,0],[0.995,0.63,0],[0.72,0.99,0],[0.5,1,0],[0.28,0.99,0]];shape=mxgraph.kubernetes.icon2;kubernetesLabel=1;prIcon=pod" vertex="1" parent="1">
          <mxGeometry x="145" y="360" width="50" height="48" as="geometry" />
        </mxCell>
        <mxCell id="rjX3UwFx4na6aEU0xc1k-5" value="" style="aspect=fixed;sketch=0;html=1;dashed=0;whitespace=wrap;verticalLabelPosition=bottom;verticalAlign=top;fillColor=#2875E2;strokeColor=#ffffff;points=[[0.005,0.63,0],[0.1,0.2,0],[0.9,0.2,0],[0.5,0,0],[0.995,0.63,0],[0.72,0.99,0],[0.5,1,0],[0.28,0.99,0]];shape=mxgraph.kubernetes.icon2;kubernetesLabel=1;prIcon=pod" vertex="1" parent="1">
          <mxGeometry x="145" y="451" width="50" height="48" as="geometry" />
        </mxCell>
        <mxCell id="rjX3UwFx4na6aEU0xc1k-6" value="" style="aspect=fixed;sketch=0;html=1;dashed=0;whitespace=wrap;verticalLabelPosition=bottom;verticalAlign=top;fillColor=#2875E2;strokeColor=#ffffff;points=[[0.005,0.63,0],[0.1,0.2,0],[0.9,0.2,0],[0.5,0,0],[0.995,0.63,0],[0.72,0.99,0],[0.5,1,0],[0.28,0.99,0]];shape=mxgraph.kubernetes.icon2;kubernetesLabel=1;prIcon=pod" vertex="1" parent="1">
          <mxGeometry x="145" y="550" width="50" height="48" as="geometry" />
        </mxCell>
        <mxCell id="rjX3UwFx4na6aEU0xc1k-8" value="Frontend-ns" style="text;html=1;align=center;verticalAlign=middle;resizable=0;points=[];autosize=1;strokeColor=none;fillColor=none;" vertex="1" parent="1">
          <mxGeometry x="125" y="290" width="90" height="30" as="geometry" />
        </mxCell>
        <mxCell id="rjX3UwFx4na6aEU0xc1k-9" value="Frontend-pods" style="text;html=1;align=center;verticalAlign=middle;resizable=0;points=[];autosize=1;strokeColor=none;fillColor=none;" vertex="1" parent="1">
          <mxGeometry x="115" y="330" width="100" height="30" as="geometry" />
        </mxCell>
        <mxCell id="rjX3UwFx4na6aEU0xc1k-11" value="" style="rounded=1;whiteSpace=wrap;html=1;" vertex="1" parent="1">
          <mxGeometry x="360" y="275" width="160" height="400" as="geometry" />
        </mxCell>
        <mxCell id="rjX3UwFx4na6aEU0xc1k-12" value="" style="rounded=1;whiteSpace=wrap;html=1;" vertex="1" parent="1">
          <mxGeometry x="375" y="320" width="130" height="310" as="geometry" />
        </mxCell>
        <mxCell id="rjX3UwFx4na6aEU0xc1k-13" value="" style="aspect=fixed;sketch=0;html=1;dashed=0;whitespace=wrap;verticalLabelPosition=bottom;verticalAlign=top;fillColor=#2875E2;strokeColor=#ffffff;points=[[0.005,0.63,0],[0.1,0.2,0],[0.9,0.2,0],[0.5,0,0],[0.995,0.63,0],[0.72,0.99,0],[0.5,1,0],[0.28,0.99,0]];shape=mxgraph.kubernetes.icon2;kubernetesLabel=1;prIcon=pod" vertex="1" parent="1">
          <mxGeometry x="415" y="360" width="50" height="48" as="geometry" />
        </mxCell>
        <mxCell id="rjX3UwFx4na6aEU0xc1k-14" value="" style="aspect=fixed;sketch=0;html=1;dashed=0;whitespace=wrap;verticalLabelPosition=bottom;verticalAlign=top;fillColor=#2875E2;strokeColor=#ffffff;points=[[0.005,0.63,0],[0.1,0.2,0],[0.9,0.2,0],[0.5,0,0],[0.995,0.63,0],[0.72,0.99,0],[0.5,1,0],[0.28,0.99,0]];shape=mxgraph.kubernetes.icon2;kubernetesLabel=1;prIcon=pod" vertex="1" parent="1">
          <mxGeometry x="415" y="451" width="50" height="48" as="geometry" />
        </mxCell>
        <mxCell id="rjX3UwFx4na6aEU0xc1k-15" value="" style="aspect=fixed;sketch=0;html=1;dashed=0;whitespace=wrap;verticalLabelPosition=bottom;verticalAlign=top;fillColor=#2875E2;strokeColor=#ffffff;points=[[0.005,0.63,0],[0.1,0.2,0],[0.9,0.2,0],[0.5,0,0],[0.995,0.63,0],[0.72,0.99,0],[0.5,1,0],[0.28,0.99,0]];shape=mxgraph.kubernetes.icon2;kubernetesLabel=1;prIcon=pod" vertex="1" parent="1">
          <mxGeometry x="415" y="550" width="50" height="48" as="geometry" />
        </mxCell>
        <mxCell id="rjX3UwFx4na6aEU0xc1k-16" value="Backend-ns" style="text;html=1;align=center;verticalAlign=middle;resizable=0;points=[];autosize=1;strokeColor=none;fillColor=none;" vertex="1" parent="1">
          <mxGeometry x="395" y="290" width="90" height="30" as="geometry" />
        </mxCell>
        <mxCell id="rjX3UwFx4na6aEU0xc1k-17" value="Backend-pods" style="text;html=1;align=center;verticalAlign=middle;resizable=0;points=[];autosize=1;strokeColor=none;fillColor=none;" vertex="1" parent="1">
          <mxGeometry x="385" y="330" width="100" height="30" as="geometry" />
        </mxCell>
        <mxCell id="rjX3UwFx4na6aEU0xc1k-18" value="" style="rounded=1;whiteSpace=wrap;html=1;" vertex="1" parent="1">
          <mxGeometry x="630" y="275" width="160" height="400" as="geometry" />
        </mxCell>
        <mxCell id="rjX3UwFx4na6aEU0xc1k-19" value="" style="rounded=1;whiteSpace=wrap;html=1;" vertex="1" parent="1">
          <mxGeometry x="645" y="320" width="130" height="310" as="geometry" />
        </mxCell>
        <mxCell id="rjX3UwFx4na6aEU0xc1k-20" value="" style="aspect=fixed;sketch=0;html=1;dashed=0;whitespace=wrap;verticalLabelPosition=bottom;verticalAlign=top;fillColor=#2875E2;strokeColor=#ffffff;points=[[0.005,0.63,0],[0.1,0.2,0],[0.9,0.2,0],[0.5,0,0],[0.995,0.63,0],[0.72,0.99,0],[0.5,1,0],[0.28,0.99,0]];shape=mxgraph.kubernetes.icon2;kubernetesLabel=1;prIcon=pod" vertex="1" parent="1">
          <mxGeometry x="685" y="360" width="50" height="48" as="geometry" />
        </mxCell>
        <mxCell id="rjX3UwFx4na6aEU0xc1k-21" value="" style="aspect=fixed;sketch=0;html=1;dashed=0;whitespace=wrap;verticalLabelPosition=bottom;verticalAlign=top;fillColor=#2875E2;strokeColor=#ffffff;points=[[0.005,0.63,0],[0.1,0.2,0],[0.9,0.2,0],[0.5,0,0],[0.995,0.63,0],[0.72,0.99,0],[0.5,1,0],[0.28,0.99,0]];shape=mxgraph.kubernetes.icon2;kubernetesLabel=1;prIcon=pod" vertex="1" parent="1">
          <mxGeometry x="685" y="451" width="50" height="48" as="geometry" />
        </mxCell>
        <mxCell id="rjX3UwFx4na6aEU0xc1k-22" value="" style="aspect=fixed;sketch=0;html=1;dashed=0;whitespace=wrap;verticalLabelPosition=bottom;verticalAlign=top;fillColor=#2875E2;strokeColor=#ffffff;points=[[0.005,0.63,0],[0.1,0.2,0],[0.9,0.2,0],[0.5,0,0],[0.995,0.63,0],[0.72,0.99,0],[0.5,1,0],[0.28,0.99,0]];shape=mxgraph.kubernetes.icon2;kubernetesLabel=1;prIcon=pod" vertex="1" parent="1">
          <mxGeometry x="685" y="550" width="50" height="48" as="geometry" />
        </mxCell>
        <mxCell id="rjX3UwFx4na6aEU0xc1k-23" value="Database-ns" style="text;html=1;align=center;verticalAlign=middle;resizable=0;points=[];autosize=1;strokeColor=none;fillColor=none;" vertex="1" parent="1">
          <mxGeometry x="665" y="290" width="90" height="30" as="geometry" />
        </mxCell>
        <mxCell id="rjX3UwFx4na6aEU0xc1k-24" value="Database&lt;span style=&quot;background-color: transparent; color: light-dark(rgb(0, 0, 0), rgb(255, 255, 255));&quot;&gt;-pods&lt;/span&gt;" style="text;html=1;align=center;verticalAlign=middle;resizable=0;points=[];autosize=1;strokeColor=none;fillColor=none;" vertex="1" parent="1">
          <mxGeometry x="655" y="330" width="100" height="30" as="geometry" />
        </mxCell>
        <mxCell id="rjX3UwFx4na6aEU0xc1k-25" value="" style="endArrow=classic;html=1;rounded=0;entryX=-0.012;entryY=0.438;entryDx=0;entryDy=0;entryPerimeter=0;" edge="1" parent="1" target="rjX3UwFx4na6aEU0xc1k-11">
          <mxGeometry width="50" height="50" relative="1" as="geometry">
            <mxPoint x="250" y="451" as="sourcePoint" />
            <mxPoint x="300" y="401" as="targetPoint" />
          </mxGeometry>
        </mxCell>
        <mxCell id="rjX3UwFx4na6aEU0xc1k-26" value="" style="endArrow=classic;html=1;rounded=0;entryX=-0.012;entryY=0.438;entryDx=0;entryDy=0;entryPerimeter=0;" edge="1" parent="1">
          <mxGeometry width="50" height="50" relative="1" as="geometry">
            <mxPoint x="520" y="451" as="sourcePoint" />
            <mxPoint x="628" y="450" as="targetPoint" />
          </mxGeometry>
        </mxCell>
        <mxCell id="rjX3UwFx4na6aEU0xc1k-31" value="" style="endArrow=classic;html=1;rounded=1;curved=0;strokeColor=#005700;dashed=1;fillColor=#008a00;" edge="1" parent="1">
          <mxGeometry width="50" height="50" relative="1" as="geometry">
            <mxPoint x="120" y="250" as="sourcePoint" />
            <mxPoint x="240" y="250" as="targetPoint" />
          </mxGeometry>
        </mxCell>
        <mxCell id="rjX3UwFx4na6aEU0xc1k-32" value="Egress" style="edgeLabel;html=1;align=center;verticalAlign=middle;resizable=0;points=[];" vertex="1" connectable="0" parent="rjX3UwFx4na6aEU0xc1k-31">
          <mxGeometry x="-0.15" y="1" relative="1" as="geometry">
            <mxPoint as="offset" />
          </mxGeometry>
        </mxCell>
        <mxCell id="rjX3UwFx4na6aEU0xc1k-33" value="" style="endArrow=classic;html=1;rounded=1;curved=0;strokeColor=#2D7600;dashed=1;fillColor=#60a917;" edge="1" parent="1">
          <mxGeometry width="50" height="50" relative="1" as="geometry">
            <mxPoint x="380" y="240" as="sourcePoint" />
            <mxPoint x="500" y="240" as="targetPoint" />
          </mxGeometry>
        </mxCell>
        <mxCell id="rjX3UwFx4na6aEU0xc1k-34" value="Egress" style="edgeLabel;html=1;align=center;verticalAlign=middle;resizable=0;points=[];" vertex="1" connectable="0" parent="rjX3UwFx4na6aEU0xc1k-33">
          <mxGeometry x="-0.15" y="1" relative="1" as="geometry">
            <mxPoint as="offset" />
          </mxGeometry>
        </mxCell>
        <mxCell id="rjX3UwFx4na6aEU0xc1k-38" value="" style="endArrow=classic;html=1;rounded=1;curved=0;strokeColor=#b85450;dashed=1;fillColor=#f8cecc;" edge="1" parent="1">
          <mxGeometry width="50" height="50" relative="1" as="geometry">
            <mxPoint x="384" y="710" as="sourcePoint" />
            <mxPoint x="504" y="710" as="targetPoint" />
          </mxGeometry>
        </mxCell>
        <mxCell id="rjX3UwFx4na6aEU0xc1k-42" value="Ingress" style="edgeLabel;html=1;align=center;verticalAlign=middle;resizable=0;points=[];" vertex="1" connectable="0" parent="rjX3UwFx4na6aEU0xc1k-38">
          <mxGeometry x="0.1" y="-2" relative="1" as="geometry">
            <mxPoint x="-10" y="-2" as="offset" />
          </mxGeometry>
        </mxCell>
        <mxCell id="rjX3UwFx4na6aEU0xc1k-43" value="" style="endArrow=classic;html=1;rounded=1;curved=0;strokeColor=#A50040;dashed=1;fillColor=#d80073;" edge="1" parent="1">
          <mxGeometry width="50" height="50" relative="1" as="geometry">
            <mxPoint x="640" y="710" as="sourcePoint" />
            <mxPoint x="760" y="710" as="targetPoint" />
          </mxGeometry>
        </mxCell>
        <mxCell id="rjX3UwFx4na6aEU0xc1k-44" value="Ingress" style="edgeLabel;html=1;align=center;verticalAlign=middle;resizable=0;points=[];" vertex="1" connectable="0" parent="rjX3UwFx4na6aEU0xc1k-43">
          <mxGeometry x="0.1" y="-2" relative="1" as="geometry">
            <mxPoint x="-10" y="-2" as="offset" />
          </mxGeometry>
        </mxCell>
      </root>
    </mxGraphModel>
  </diagram>
</mxfile>
